G04 start of page 2 for group 10 layer_idx 1 *
G04 Title: (unknown), bottom_copper *
G04 Creator: pcb-rnd 3.1.4-dev *
G04 CreationDate: 2024-02-11 05:41:19 UTC *
G04 For: STEM4ukraine *
G04 Format: Gerber/RS-274X *
G04 PCB-Dimensions: 393701 393701 *
G04 PCB-Coordinate-Origin: lower left *
%MOIN*%
%FSLAX25Y25*%
%LNBOTTOM_COPPER_NONE_10*%
%ADD51C,0.0906*%
%ADD50C,0.0350*%
%ADD49C,0.0430*%
%ADD48C,0.0472*%
%ADD47C,0.0420*%
%ADD46C,0.0591*%
%ADD45C,0.0338*%
%ADD44C,0.0362*%
%ADD43C,0.0394*%
%ADD42C,0.0315*%
%ADD41C,0.1535*%
%ADD40C,0.0650*%
%ADD39C,0.0720*%
%ADD38C,0.0882*%
%ADD37C,0.0636*%
%ADD36C,0.0001*%
%ADD35C,0.0827*%
%ADD34C,0.0800*%
%ADD33C,0.0787*%
%ADD32C,0.0300*%
G54D32*X80522Y64745D02*X80489Y64712D01*
X201850Y330709D02*Y322218D01*
Y350394D02*X206950Y345294D01*
X200924Y311161D02*X206950Y317186D01*
X208268Y342112D02*Y320368D01*
X200532Y319036D02*X195413Y313916D01*
X194094Y85314D02*Y310734D01*
X167500Y16201D02*Y13701D01*
X112500Y78701D02*X187549D01*
X112500Y64701D02*X190409D01*
X167500Y22701D02*Y13701D01*
X197500D02*X222500D01*
X105000D02*X125000D01*
X222500Y18701D02*Y13701D01*
X156000Y16701D02*Y8701D01*
X260000Y3701D02*X161000D01*
X199606Y307979D02*Y73698D01*
X105000Y43701D02*X273813Y43701D01*
X295000Y13701D02*X315000D01*
X227500Y23701D02*X341000D01*
X283946Y34579D02*X292188Y42822D01*
X294291Y43701D02*X301575D01*
X329534Y43504D02*X340000D01*
X360236Y21653D02*Y11811D01*
Y51181D02*Y41338D01*
X343121Y24579D02*X360236Y41701D01*
X340000Y53701D02*Y56701D01*
X316586Y54587D02*X326352Y44822D01*
X313404Y55906D02*X289746D01*
X276995Y45019D02*X286564Y54587D01*
X320000Y3701D02*X355200D01*
X315000Y13701D02*Y8701D01*
X360236Y11801D02*X360300Y8701D01*
X265000D02*Y13701D01*
X94243Y27701D02*X162500D01*
X100000Y21701D02*X151000D01*
X95000Y33701D02*X281824Y33701D01*
X54000Y62201D02*Y53443D01*
X44000Y62201D02*Y55943D01*
X54000Y53443D02*Y54701D01*
X74121Y24579D02*X44879Y53822D01*
X80500Y64701D02*X84400D01*
X83000Y30701D02*X76743D01*
X82478Y78657D02*Y64657D01*
X71476Y54724D02*X95000D01*
X85000Y13701D02*Y23701D01*
X76243D02*X87757Y23701D01*
X89879Y24579D02*X92121Y26822D01*
X54000Y72201D02*Y76458D01*
X23011Y80496D02*X49962D01*
X39538Y72239D02*X43908D01*
X44000Y72201D02*X43554D01*
X19000Y41701D02*Y76441D01*
X35500Y68201D02*Y49201D01*
X31000Y45201D02*X27500D01*
X23000Y37701D02*X52757D01*
X23530Y28461D02*X27141D01*
X27419Y28542D02*X27500Y28461D01*
X19500Y24404D02*Y10701D01*
X74621Y31579D02*X54879Y51322D01*
X75000Y13701D02*Y15458D01*
X26500Y3701D02*X100000D01*
X105000Y8701D02*Y13701D01*
X95000D02*Y16701D01*
X74121Y17579D02*X54879Y36822D01*
X54000Y53443D02*G75*G03X54879Y51322I3000J0D01*G01*
X44000Y55943D02*G75*G03X44879Y53822I3000J0D01*G01*
X76243Y23701D02*G75*G02X74121Y24579I0J3000D01*G01*
X54879Y36822D02*G75*G03X52757Y37701I-2121J-2121D01*G01*
X64000Y62201D02*G75*G03X71476Y54724I7476J0D01*G01*
X85000Y43701D02*G75*G03X95000Y33701I10000J0D01*G01*
X76743Y30701D02*G75*G02X74621Y31579I0J3000D01*G01*
X75000Y15458D02*G75*G03X74121Y17579I-3000J0D01*G01*
X87757Y23701D02*G75*G03X89879Y24579I0J3000D01*G01*
X100000Y3701D02*G75*G03X105000Y8701I0J5000D01*G01*
X92121Y26822D02*G75*G02X94243Y27701I2121J-2121D01*G01*
X100000Y21701D02*G75*G03X95000Y16701I0J-5000D01*G01*
X105000Y43701D02*G75*G03X93976Y54724I-11024J0D01*G01*
X19000Y41701D02*G75*G03X23038Y37663I4038J0D01*G01*
X27141Y28461D02*G75*G03X27378Y28559I0J336D01*G01*
X26500Y3701D02*G75*G02X19500Y10701I0J7000D01*G01*
X23530Y28461D02*G75*G03X19492Y24423I0J-4038D01*G01*
X27378Y28559D02*G75*G02X27419Y28542I0J-57D01*G01*
X31462Y45163D02*G75*G03X35500Y49201I0J4038D01*G01*
X260000Y3701D02*G75*G03X265000Y8701I0J5000D01*G01*
X199606Y73898D02*G75*G02X190409Y64701I-9197J0D01*G01*
X187549Y78701D02*G75*G03X194100Y85301I-49J6600D01*G01*
X222500Y18701D02*G75*G02X227500Y23701I5000J0D01*G01*
X23040Y80491D02*G75*G03X19002Y76453I0J-4038D01*G01*
X23200Y80501D02*G75*G03X23211Y80496I11J11D01*G01*
X23000Y80501D02*G75*G03X23011Y80496I11J11D01*G01*
X54000Y76458D02*G75*G03X49962Y80496I-4038J0D01*G01*
X39538Y72239D02*G75*G03X35500Y68201I0J-4038D01*G01*
X43908Y72239D02*G75*G02X44000Y72201I0J-129D01*G01*
X43554Y72201D02*G75*G02X43462Y72239I0J129D01*G01*
X194100Y85301D02*G75*G02X194094Y85314I13J13D01*G01*
X206950Y345294D02*G75*G02X208268Y342112I-3182J-3182D01*G01*
Y320368D02*G75*G02X206950Y317186I-4500J0D01*G01*
X200924Y311161D02*G75*G03X199606Y307979I3182J-3182D01*G01*
X201850Y322218D02*G75*G02X200532Y319036I-4500J0D01*G01*
X194094Y310734D02*G75*G02X195413Y313916I4500J0D01*G01*
X320000Y3701D02*G75*G02X315000Y8701I0J5000D01*G01*
X292188Y42822D02*G75*G02X294310Y43701I2121J-2121D01*G01*
X281824Y33701D02*G75*G03X283946Y34579I0J3000D01*G01*
X355200Y3701D02*G75*G03X360200Y8701I0J5000D01*G01*
X341000Y23701D02*G75*G03X343121Y24579I0J3000D01*G01*
X356500Y72701D02*G75*G03X340000Y56201I0J-16500D01*G01*
X326352Y44822D02*G75*G03X329534Y43504I3182J3182D01*G01*
X313404Y55906D02*G75*G02X316586Y54587I0J-4500D01*G01*
X289746Y55906D02*G75*G03X286564Y54587I0J-4500D01*G01*
X273813Y43701D02*G75*G03X276995Y45019I0J4500D01*G01*
X167500Y22701D02*G75*G03X162500Y27701I-5000J0D01*G01*
X156000Y16701D02*G75*G03X151000Y21701I-5000J0D01*G01*
X156000Y8701D02*G75*G03X161000Y3701I5000J0D01*G01*
G54D33*X27500Y45201D03*
X83000Y30701D03*
G54D34*X85000Y43701D03*
X75000D03*
G54D35*X27378Y28559D03*
X37220D03*
G54D36*G36*
X109000Y47701D02*Y39701D01*
X101000D01*
Y47701D01*
X109000D01*
G37*
G54D34*X95000Y43701D03*
G54D36*G36*
X78500Y68701D02*X86500D01*
Y60701D01*
X78500D01*
Y68701D01*
G37*
G54D34*X112500Y64701D03*
G54D36*G36*
X31036Y83674D02*Y77318D01*
X24680D01*
Y83674D01*
X31036D01*
G37*
G54D34*X44000Y72201D03*
X54000D03*
X64000D03*
G54D36*G36*
X78500Y82701D02*X86500D01*
Y74701D01*
X78500D01*
Y82701D01*
G37*
G54D34*X112500Y78701D03*
G54D37*X10142Y80496D03*
Y54906D03*
X27858D03*
G54D36*G36*
X40000Y58201D02*Y66201D01*
X48000D01*
Y58201D01*
X40000D01*
G37*
G54D34*X54000Y62201D03*
X64000D03*
G54D38*X360236Y51181D03*
Y41338D03*
G54D39*X340000Y43701D03*
G54D38*X360236Y11811D03*
Y21653D03*
G54D36*G36*
X188600Y333959D02*X195100D01*
Y327459D01*
X188600D01*
Y333959D01*
G37*
G36*
Y353644D02*X195100D01*
Y347144D01*
X188600D01*
Y353644D01*
G37*
G54D40*X201850Y350394D03*
G54D34*X315000Y13701D03*
G54D40*X201850Y330709D03*
G54D34*X301575Y66079D02*Y71236D01*
G54D36*G36*
X297575Y37236D02*Y50436D01*
X305575D01*
Y37236D01*
X297575D01*
G37*
G54D34*X335000Y13701D03*
G54D36*G36*
X343600Y37301D02*Y30101D01*
X336400D01*
Y37301D01*
X343600D01*
G37*
G54D39*X340000Y53701D03*
G54D38*X379921Y31496D03*
G54D36*G36*
X352500Y68701D02*Y76701D01*
X360500D01*
Y68701D01*
X352500D01*
G37*
G54D34*X376500Y72701D03*
X95000Y13701D03*
X85000D03*
X75000D03*
X105000D03*
X125000D03*
X145000D03*
G54D36*G36*
X163500Y17701D02*X171500D01*
Y9701D01*
X163500D01*
Y17701D01*
G37*
G54D34*X197500Y13701D03*
G54D36*G36*
X261000Y17701D02*X269000D01*
Y9701D01*
X261000D01*
Y17701D01*
G37*
G54D34*X222500Y13701D03*
X242500D03*
X295000D03*
G54D41*X56000Y19701D03*
X8598D03*
G54D35*X27378Y15961D03*
X37220D03*
G54D42*G54D43*G54D44*G54D43*G54D45*G54D43*G54D45*G54D43*G54D46*G54D47*G54D46*G54D48*G54D49*G54D50*G54D49*G54D50*G54D47*G54D46*G54D48*G54D43*G54D48*G54D43*G54D50*G54D43*G54D50*G54D48*G54D43*G54D51*G54D44*M02*
