M48
INCH
T20C0.047
T19C0.091
T18C0.035
T17C0.043
T16C0.042
T15C0.059
T14C0.034
T13C0.036
T12C0.039
T11C0.031
%
T11
G05
X002750Y004520
X008300Y003070
T14
X002786Y008050
X001014Y008050
X001014Y005491
X002786Y005491
T18
X031500Y001370
X033500Y001370
X012500Y001370
X014500Y001370
X022250Y001370
X024250Y001370
T13
X002738Y002856
X003722Y002856
X002738Y001596
X003722Y001596
T12
X008500Y004370
X007500Y004370
X010500Y004370
X009500Y004370
X008250Y006470
X011250Y006470
X004400Y007220
X005400Y007220
X006400Y007220
X008250Y007870
X011250Y007870
X004400Y006220
X005400Y006220
X006400Y006220
X035650Y007270
X037650Y007270
X009500Y001370
X008500Y001370
X007500Y001370
X010500Y001370
X016750Y001370
X019750Y001370
X026500Y001370
X029500Y001370
T16
X034000Y004370
X034000Y003370
X034000Y005370
T17
X019185Y033071
X019185Y035039
X020185Y035039
X020185Y033071
T20
X036024Y003150
X037992Y005118
X038976Y005118
X037992Y001181
X038976Y001181
T15
X036024Y005118
X036024Y004134
X036024Y001181
X036024Y002165
X037992Y003150
T19
X005600Y001970
X000860Y001970
M30
