G04 start of page 2 for group 2 layer_idx 8 *
G04 Title: (unknown), top_mask *
G04 Creator: pcb-rnd 3.1.4-dev *
G04 CreationDate: 2024-02-11 05:41:19 UTC *
G04 For: STEM4ukraine *
G04 Format: Gerber/RS-274X *
G04 PCB-Dimensions: 393701 393701 *
G04 PCB-Coordinate-Origin: lower left *
%MOIN*%
%FSLAX25Y25*%
%LNTOP_MASK_NONE_2*%
%ADD68C,0.1595*%
%ADD67C,0.0710*%
%ADD66C,0.0780*%
%ADD65C,0.0942*%
%ADD64C,0.0696*%
%ADD63C,0.0001*%
%ADD62C,0.0887*%
%ADD61C,0.0860*%
G54D61*X85000Y43701D03*
X75000D03*
G54D62*X27378Y28559D03*
X37220D03*
G54D63*G36*
X109300Y48001D02*Y39401D01*
X100700D01*
Y48001D01*
X109300D01*
G37*
G54D61*X95000Y43701D03*
G54D63*G36*
X78200Y69001D02*X86800D01*
Y60401D01*
X78200D01*
Y69001D01*
G37*
G54D61*X112500Y64701D03*
G54D63*G36*
X31336Y83974D02*Y77018D01*
X24380D01*
Y83974D01*
X31336D01*
G37*
G54D61*X44000Y72201D03*
X54000D03*
X64000D03*
G54D63*G36*
X78200Y83001D02*X86800D01*
Y74401D01*
X78200D01*
Y83001D01*
G37*
G54D61*X112500Y78701D03*
G54D64*X10142Y80496D03*
Y54906D03*
X27858D03*
G54D63*G36*
X39700Y57901D02*Y66501D01*
X48300D01*
Y57901D01*
X39700D01*
G37*
G54D61*X54000Y62201D03*
X64000D03*
G54D65*X360236Y51181D03*
Y41338D03*
G54D66*X340000Y43701D03*
G54D65*X360236Y11811D03*
Y21653D03*
G54D63*G36*
X188300Y334259D02*X195400D01*
Y327159D01*
X188300D01*
Y334259D01*
G37*
G36*
Y353944D02*X195400D01*
Y346844D01*
X188300D01*
Y353944D01*
G37*
G54D67*X201850Y350394D03*
G54D61*X315000Y13701D03*
G54D67*X201850Y330709D03*
G54D61*X301575Y66079D02*Y71236D01*
G54D63*G36*
X297275Y36936D02*Y50736D01*
X305875D01*
Y36936D01*
X297275D01*
G37*
G54D61*X335000Y13701D03*
G54D63*G36*
X343900Y37601D02*Y29801D01*
X336100D01*
Y37601D01*
X343900D01*
G37*
G54D66*X340000Y53701D03*
G54D65*X379921Y31496D03*
G54D63*G36*
X352200Y68401D02*Y77001D01*
X360800D01*
Y68401D01*
X352200D01*
G37*
G54D61*X376500Y72701D03*
X95000Y13701D03*
X85000D03*
X75000D03*
X105000D03*
X125000D03*
X145000D03*
G54D63*G36*
X163200Y18001D02*X171800D01*
Y9401D01*
X163200D01*
Y18001D01*
G37*
G54D61*X197500Y13701D03*
G54D63*G36*
X260700Y18001D02*X269300D01*
Y9401D01*
X260700D01*
Y18001D01*
G37*
G54D61*X222500Y13701D03*
X242500D03*
X295000D03*
G54D68*X56000Y19701D03*
X8598D03*
G54D62*X27378Y15961D03*
X37220D03*
G54D63*G36*
X204724Y374016D02*X208661Y362205D01*
X210630Y352362D01*
Y340551D01*
X208661Y322835D01*
X204724Y307087D01*
X202756Y301181D01*
X190945D01*
X188976Y307087D01*
X185039Y322835D01*
X183071Y340551D01*
Y352362D01*
X185039Y362205D01*
X188976Y374016D01*
X196850Y385827D01*
X204724Y374016D01*
G37*
M02*
