G04 start of page 2 for group 1 layer_idx 6 *
G04 Title: (unknown), top_silk *
G04 Creator: pcb-rnd 3.1.4-dev *
G04 CreationDate: 2024-02-11 05:41:19 UTC *
G04 For: STEM4ukraine *
G04 Format: Gerber/RS-274X *
G04 PCB-Dimensions: 393701 393701 *
G04 PCB-Coordinate-Origin: lower left *
%MOIN*%
%FSLAX25Y25*%
%LNTOP_SILK_NONE_1*%
%ADD56C,0.0070*%
%ADD55C,0.0350*%
%ADD54C,0.0150*%
%ADD53C,0.0400*%
%ADD52C,0.0100*%
G54D52*X129921Y299213D02*X263780D01*
G54D53*X190449Y264790D02*X191836Y226364D01*
X203270Y264790D02*X201883Y226364D01*
X177804Y175088D02*X172287Y176461D01*
X216576Y193087D02*X220836Y229173D01*
X226112Y200193D02*X229426Y228183D01*
X235316Y180285D02*X240167D01*
X235316Y188947D02*X240167D01*
X177142Y193087D02*X172883Y229173D01*
X240167Y253214D02*Y188947D01*
X248828Y271230D02*Y145640D01*
X173041Y154301D02*X153552D01*
Y180285D02*X158403D01*
X153552Y188947D02*X158403D01*
X153552Y154301D02*Y180285D01*
X144891Y145640D02*X173834Y145642D01*
X167607Y200193D02*X164293Y228183D01*
X153552Y188947D02*Y253214D01*
X144891Y271230D02*Y145640D01*
X174723Y166850D02*X169932Y168115D01*
X215915Y175088D02*X221432Y176461D01*
X218996Y166850D02*X223786Y168115D01*
G54D52*X129921Y86614D02*Y299213D01*
G54D53*X182655Y145640D02*X192529D01*
X201190D02*Y127364D01*
X181702Y154301D02*X192529D01*
X201190D02*X212017D01*
X220678D02*X240167D01*
Y180285D02*Y154301D01*
X201190Y145640D02*X211064D01*
X220678D02*X248828D01*
G54D52*X7583Y79118D02*Y56283D01*
X27268Y79118D02*X7583D01*
X27268D02*X30417Y75969D01*
X3937Y86614D02*Y3937D01*
X27858Y59827D02*X21953D01*
X16047D02*X10142D01*
X21953Y57858D02*X16047Y59827D01*
X30417Y75969D02*Y56283D01*
X7583D01*
X39000Y57201D02*X69000D01*
X39000D02*Y77201D01*
X69000D02*X39000D01*
X69000D02*Y57201D01*
X82500Y78701D02*X90000D01*
X82500Y64701D02*X90000D01*
Y67201D02*Y62201D01*
X129921Y86614D02*X3937D01*
X105000Y78701D02*X112500D01*
X90000Y81201D02*Y76201D01*
Y81201D02*X105000D01*
Y76201D02*X90000D01*
X105000D02*Y81201D01*
Y64701D02*X112500D01*
X90000Y67201D02*X105000D01*
Y62201D02*X90000D01*
X105000D02*Y67201D01*
X44000Y57201D02*X41500Y52201D01*
X44000Y57201D02*X46500Y52201D01*
X41500D02*X46500D01*
X70000Y8701D02*Y48701D01*
X110000Y23701D02*Y8701D01*
Y48701D02*X70000D01*
Y8701D02*X110000D01*
Y48701D02*Y33701D01*
G54D53*X192529Y145640D02*Y127364D01*
G54D54*X133000Y13701D02*X125000D01*
X145000D02*X137000D01*
G54D52*X167500D02*X175000D01*
Y16201D02*X190000D01*
X175000D02*Y11201D01*
X190000D02*X175000D01*
X190000D02*Y16201D01*
G54D54*X133000Y18701D02*Y8701D01*
X137000Y18701D02*Y8701D01*
G54D52*X356299Y55118D02*X350394D01*
Y7874D01*
X356299D02*X350394D01*
X375984D02*X364173D01*
X190000Y13701D02*X197500D01*
X265000D02*X272500D01*
X287500D02*X295000D01*
X272500Y16201D02*Y11201D01*
X287500D02*X272500D01*
X287500D02*Y16201D01*
X272500D02*X287500D01*
G54D54*X230500Y13701D02*X222500D01*
X242500D02*X234500D01*
X230500Y18701D02*Y8701D01*
X234500Y18701D02*Y8701D01*
X323000Y13701D02*X315000D01*
X323000Y18701D02*Y8701D01*
X335000Y13701D02*X327000D01*
Y18701D02*Y8701D01*
G54D52*X389764Y3937D02*X3937D01*
X364173Y55118D02*X375984D01*
X383858D02*X385827D01*
X383858Y7874D02*X385827D01*
X347000Y50701D02*Y36701D01*
X346500Y62701D02*Y82701D01*
X386500D02*X346500D01*
X366500Y62701D02*Y82701D01*
X391732Y55118D02*X393701D01*
X346500Y62701D02*X386500D01*
Y82701D02*Y62701D01*
X346500Y82701D02*X366500D01*
X393701Y55118D02*Y53149D01*
Y49212D02*X397638D01*
Y13779D02*X393701D01*
Y47244D02*Y15748D01*
Y9842D02*Y7874D01*
X391732D01*
X263780Y299213D02*Y86614D01*
X389764D01*
Y3937D01*
X181102Y346457D02*G75*G02X196884Y388160I62992J0D01*G01*
X181102Y346457D02*G75*G03X189863Y299556I129921J0D01*G01*
X212598Y346457D02*G75*G03X196817Y388160I-62992J0D01*G01*
X212598Y346457D02*G75*G02X203838Y299556I-129921J0D01*G01*
G54D53*X201201Y127354D02*G75*G03X211043Y145644I-28160J26947D01*G01*
X212017Y154301D02*G75*G03X210619Y164647I-38976J0D01*G01*
X196875Y166415D02*G75*G02X207166Y172837I14709J-12113D01*G01*
X201190Y154301D02*G75*G02X210635Y164651I10394J0D01*G01*
X196866Y110731D02*G75*G02X201803Y116324I15151J-8398D01*G01*
X196853Y110731D02*G75*G03X191916Y116324I-15151J-8398D01*G01*
X201801Y116325D02*G75*G03X219885Y145642I-28761J37976D01*G01*
X207174Y172840D02*G75*G02X196850Y196850I84961J50753D01*G01*
X190449Y264790D02*G75*G02X196868Y284096I25899J2109D01*G01*
X215948Y175110D02*G75*G02X201873Y226364I76187J48482D01*G01*
X203270Y264790D02*G75*G03X196851Y284096I-25899J2109D01*G01*
X220678Y154301D02*G75*G03X218996Y166850I-47638J0D01*G01*
X240158Y253234D02*G75*G03X229441Y228181I34654J-29642D01*G01*
X223786Y168115D02*G75*G03X235288Y180293I-5273J16501D01*G01*
X235288Y188939D02*G75*G03X226110Y200184I-16775J-4323D01*G01*
X221432Y176461D02*G75*G03X216573Y193057I-2919J8155D01*G01*
X248828Y271230D02*G75*G03X220836Y229173I25984J-47638D01*G01*
X173041Y154301D02*G75*G02X174723Y166850I47638J0D01*G01*
X169932Y168115D02*G75*G02X158431Y180293I5273J16501D01*G01*
X172287Y176461D02*G75*G02X177146Y193057I2919J8155D01*G01*
X196844Y166415D02*G75*G03X186552Y172837I-14709J-12113D01*G01*
X192529Y154301D02*G75*G03X183084Y164651I-10394J0D01*G01*
X191917Y116325D02*G75*G02X173834Y145642I28761J37976D01*G01*
X181702Y154301D02*G75*G02X183100Y164647I38976J0D01*G01*
X186545Y172840D02*G75*G03X196868Y196850I-84961J50753D01*G01*
X192518Y127354D02*G75*G02X182675Y145644I28160J26947D01*G01*
G54D52*X110000Y33701D02*G75*G03X110000Y23701I0J-5000D01*G01*
X24906Y67701D02*G75*G03X13094Y67701I-5906J0D01*G01*
G75*G03X24906Y67701I5906J0D01*G01*
X347071Y50772D02*G75*G03X332929Y36630I-7071J-7071D01*G01*
X332929Y36630D02*G75*G03X347071Y36630I7071J7071D01*G01*
X301575Y31433D02*G75*G03X301575Y81039I0J24803D01*G01*
G75*G03X301575Y31433I0J-24803D01*G01*
G54D53*X177770Y175110D02*G75*G03X191846Y226364I-76187J48482D01*G01*
X153561Y253234D02*G75*G02X164277Y228181I-34654J-29642D01*G01*
X158431Y188939D02*G75*G02X167609Y200184I16775J-4323D01*G01*
X144891Y271230D02*G75*G02X172883Y229173I-25984J-47638D01*G01*
G54D55*X151969Y88971D02*Y81675D01*
X168424Y79296D02*G75*G02X151969Y81675I-8056J2380D01*G01*
X168397Y91442D02*G75*G03X151969Y88971I-8029J-2470D01*G01*
X187024Y89373D02*X177136D01*
X187024D02*X187023Y73373D01*
X176824Y89373D02*Y83571D01*
X176224Y79971D01*
X174424Y73376D01*
X196853Y73551D02*X199629D01*
X197619Y81556D02*X205234D01*
X205449Y84171D02*Y73371D01*
X196449Y89571D02*X200049D01*
X205449Y84171D02*G75*G03X200049Y89571I-5400J0D01*G01*
X193367Y86111D02*G75*G02X196740Y89484I3373J0D01*G01*
X199629Y73551D02*G75*G03X205419Y75717I0J8820D01*G01*
X197619Y81556D02*G75*G03X196480Y73587I-569J-3984D01*G01*
X196480Y73587D02*G75*G03X196853Y73551I569J3984D01*G01*
X211449Y73377D02*Y89373D01*
X211647D02*X219051D01*
X219219Y82173D02*X211647D01*
X211449Y73371D02*X219249D01*
G75*G03X221128Y81328I0J4200D01*G01*
X219219Y82173D02*G75*G03X219253Y89373I0J3600D01*G01*
X233278Y73551D02*X236054D01*
X234044Y81556D02*X241659D01*
X241874Y84171D02*Y73371D01*
X232874Y89571D02*X236474D01*
X241874Y84171D02*G75*G03X236474Y89571I-5400J0D01*G01*
X229792Y86111D02*G75*G02X233165Y89484I3373J0D01*G01*
X236054Y73551D02*G75*G03X241844Y75717I0J8820D01*G01*
X234044Y81556D02*G75*G03X232905Y73587I-569J-3984D01*G01*
X232905Y73587D02*G75*G03X233278Y73551I569J3984D01*G01*
X138527Y38307D02*X140927D01*
X153377Y62307D01*
X138527D02*X145454Y47034D01*
X159377Y54309D02*Y38313D01*
Y46107D02*X161777D01*
X170177Y54507D01*
X162377Y46107D02*X162977D01*
X170777Y38307D01*
X176777Y30507D02*Y54309D01*
X182777Y38709D02*G75*G02X177117Y41913I0J6600D01*G01*
X182777Y54309D02*G75*G03X177007Y50914I0J-6600D01*G01*
X182777Y38709D02*G75*G03X182777Y54309I0J7800D01*G01*
X200406Y38487D02*X203182D01*
X201171Y46491D02*X208786D01*
X209002Y49107D02*Y38307D01*
X200002Y54507D02*X203602D01*
X209002Y49107D02*G75*G03X203602Y54507I-5400J0D01*G01*
X196920Y51047D02*G75*G02X200292Y54419I3373J0D01*G01*
X203182Y38487D02*G75*G03X208971Y40653I0J8820D01*G01*
X201171Y46491D02*G75*G03X200033Y38522I-569J-3984D01*G01*
X200033Y38522D02*G75*G03X200406Y38487I569J3984D01*G01*
X218002Y54507D02*Y38307D01*
X215002Y60507D03*
X221002D03*
X227002Y54309D02*Y38313D01*
X239572Y54309D02*Y38313D01*
Y46107D02*X227002D01*
X245572Y54309D02*Y38313D01*
Y60507D03*
G54D56*X127700Y20701D02*X129000D01*
X127000Y21401D02*X127700Y20701D01*
X127000Y24001D02*Y21401D01*
Y24001D02*X127700Y24701D01*
X129000D01*
X130200Y23901D02*X131000Y24701D01*
Y20701D01*
X130200D02*X131700D01*
X224200D02*X225500D01*
X223500Y21401D02*X224200Y20701D01*
X223500Y24001D02*Y21401D01*
Y24001D02*X224200Y24701D01*
X225500D01*
X226700Y24201D02*X227200Y24701D01*
X228700D01*
X229200Y24201D01*
Y23201D01*
X226700Y20701D02*X229200Y23201D01*
X226700Y20701D02*X229200D01*
G54D55*X254137Y41388D02*Y38388D01*
Y62388D02*Y47388D01*
G54D56*X316700Y20701D02*X318000D01*
X316000Y21401D02*X316700Y20701D01*
X316000Y24001D02*Y21401D01*
Y24001D02*X316700Y24701D01*
X318000D01*
X319200Y24201D02*X319700Y24701D01*
X320700D01*
X321200Y24201D01*
X320700Y20701D02*X321200Y21201D01*
X319700Y20701D02*X320700D01*
X319200Y21201D02*X319700Y20701D01*
Y22901D02*X320700D01*
X321200Y24201D02*Y23401D01*
Y22401D02*Y21201D01*
Y22401D02*X320700Y22901D01*
X321200Y23401D02*X320700Y22901D01*
X344953Y8012D02*X348953D01*
X346953D02*X344953Y10012D01*
X346953Y8012D02*X348953Y10012D01*
X346753Y11212D02*Y12712D01*
X348953Y11212D02*Y13212D01*
X344953Y11212D02*X348953D01*
X344953D02*Y13212D01*
Y14412D02*X346953Y15412D01*
X344953Y16412D01*
X346953Y15412D02*X348953D01*
X346753Y17612D02*Y19112D01*
X348953Y17612D02*Y19612D01*
X344953Y17612D02*X348953D01*
X344953D02*Y19612D01*
Y20812D02*Y22812D01*
X345453Y23312D01*
X346453D01*
X346953Y22812D02*X346453Y23312D01*
X346953Y21312D02*Y22812D01*
X344953Y21312D02*X348953D01*
X346953Y22112D02*X348953Y23312D01*
X327776Y34748D02*Y31748D01*
Y34748D02*X328276Y35248D01*
X329276D01*
X329776Y34748D01*
Y32248D01*
X328776Y31248D02*X329776Y32248D01*
X328276Y31248D02*X328776D01*
X327776Y31748D02*X328276Y31248D01*
X328776Y32748D02*X329776Y31248D01*
X330976Y34448D02*X331776Y35248D01*
Y31248D01*
X330976D02*X332476D01*
X274000Y15701D02*X276000D01*
X276500Y15201D01*
Y14201D01*
X276000Y13701D02*X276500Y14201D01*
X274500Y13701D02*X276000D01*
X274500Y15701D02*Y11701D01*
X275300Y13701D02*X276500Y11701D01*
X277700Y13201D02*X279700Y15701D01*
X277700Y13201D02*X280200D01*
X279700Y15701D02*Y11701D01*
X295122Y29709D02*Y25709D01*
X294622Y29709D02*X296622D01*
X297122Y29209D01*
Y28209D01*
X296622Y27709D02*X297122Y28209D01*
X295122Y27709D02*X296622D01*
X298322Y29709D02*X299322D01*
X298822D02*Y25709D01*
X298322D02*X299322D01*
X300522Y27909D02*X302022D01*
X300522Y25709D02*X302522D01*
X300522Y29709D02*Y25709D01*
Y29709D02*X302522D01*
X303722D02*X306222D01*
X303722Y25709D02*X306222Y29709D01*
X303722Y25709D02*X306222D01*
X307422Y29209D02*Y26209D01*
Y29209D02*X307922Y29709D01*
X308922D01*
X309422Y29209D01*
Y26209D01*
X308922Y25709D02*X309422Y26209D01*
X307922Y25709D02*X308922D01*
X307422Y26209D02*X307922Y25709D01*
X102496Y54945D02*Y51445D01*
X102996Y50945D01*
X103996D01*
X104496Y51445D01*
Y54945D02*Y51445D01*
X105696Y54145D02*X106496Y54945D01*
Y50945D01*
X105696D02*X107196D01*
X91500Y80701D02*X93500D01*
X94000Y80201D01*
Y79201D01*
X93500Y78701D02*X94000Y79201D01*
X92000Y78701D02*X93500D01*
X92000Y80701D02*Y76701D01*
X92800Y78701D02*X94000Y76701D01*
X95200Y79901D02*X96000Y80701D01*
Y76701D01*
X95200D02*X96700D01*
X91500Y66701D02*X93500D01*
X94000Y66201D01*
Y65201D01*
X93500Y64701D02*X94000Y65201D01*
X92000Y64701D02*X93500D01*
X92000Y66701D02*Y62701D01*
X92800Y64701D02*X94000Y62701D01*
X95200Y66201D02*X95700Y66701D01*
X97200D01*
X97700Y66201D01*
Y65201D01*
X95200Y62701D02*X97700Y65201D01*
X95200Y62701D02*X97700D01*
X353106Y60701D02*Y57701D01*
Y60701D02*X353606Y61201D01*
X354606D01*
X355106Y60701D01*
Y57701D01*
X354606Y57201D02*X355106Y57701D01*
X353606Y57201D02*X354606D01*
X353106Y57701D02*X353606Y57201D01*
X356806Y61201D02*Y57201D01*
X358106Y61201D02*X358806Y60501D01*
Y57901D01*
X358106Y57201D02*X358806Y57901D01*
X356306Y57201D02*X358106D01*
X356306Y61201D02*X358106D01*
X360006Y57201D02*X362006D01*
X363206Y60701D02*Y57701D01*
Y60701D02*X363706Y61201D01*
X364706D01*
X365206Y60701D01*
Y57701D01*
X364706Y57201D02*X365206Y57701D01*
X363706Y57201D02*X364706D01*
X363206Y57701D02*X363706Y57201D01*
X366406Y61201D02*Y57701D01*
X366906Y57201D01*
X367906D01*
X368406Y57701D01*
Y61201D02*Y57701D01*
X369606Y61201D02*X371606D01*
X370606D02*Y57201D01*
X373306Y61201D02*Y57201D01*
X372806Y61201D02*X374806D01*
X375306Y60701D01*
Y59701D01*
X374806Y59201D02*X375306Y59701D01*
X373306Y59201D02*X374806D01*
X376506Y61201D02*Y57701D01*
X377006Y57201D01*
X378006D01*
X378506Y57701D01*
Y61201D02*Y57701D01*
X379706Y61201D02*X381706D01*
X380706D02*Y57201D01*
X176500Y15701D02*X178500D01*
X179000Y15201D01*
Y14201D01*
X178500Y13701D02*X179000Y14201D01*
X177000Y13701D02*X178500D01*
X177000Y15701D02*Y11701D01*
X177800Y13701D02*X179000Y11701D01*
X180200Y15201D02*X180700Y15701D01*
X181700D01*
X182200Y15201D01*
X181700Y11701D02*X182200Y12201D01*
X180700Y11701D02*X181700D01*
X180200Y12201D02*X180700Y11701D01*
Y13901D02*X181700D01*
X182200Y15201D02*Y14401D01*
Y13401D02*Y12201D01*
Y13401D02*X181700Y13901D01*
X182200Y14401D02*X181700Y13901D01*
X39957Y50805D02*X40957D01*
X40457D02*Y46805D01*
X39957D02*X40957D01*
X44157Y50805D02*X44657Y50305D01*
X42657Y50805D02*X44157D01*
X42157Y50305D02*X42657Y50805D01*
X42157Y50305D02*Y49305D01*
X42657Y48805D01*
X44157D01*
X44657Y48305D01*
Y47305D01*
X44157Y46805D02*X44657Y47305D01*
X42657Y46805D02*X44157D01*
X42157Y47305D02*X42657Y46805D01*
X46357Y50805D02*Y46805D01*
X45857Y50805D02*X47857D01*
X48357Y50305D01*
Y49305D01*
X47857Y48805D02*X48357Y49305D01*
X46357Y48805D02*X47857D01*
X39370Y82661D02*X41370D01*
X39370D02*Y80661D01*
X39870Y81161D01*
X40870D01*
X41370Y80661D01*
Y79161D01*
X40870Y78661D02*X41370Y79161D01*
X39870Y78661D02*X40870D01*
X39370Y79161D02*X39870Y78661D01*
X42570Y82661D02*X43570Y78661D01*
X44570Y82661D01*
X61055D02*X61555Y82161D01*
X59555Y82661D02*X61055D01*
X59055Y82161D02*X59555Y82661D01*
X59055Y82161D02*Y79161D01*
X59555Y78661D01*
X61055D01*
X61555Y79161D01*
Y80161D02*Y79161D01*
X61055Y80661D02*X61555Y80161D01*
X60055Y80661D02*X61055D01*
X62755Y82661D02*Y78661D01*
Y82661D02*X65255Y78661D01*
Y82661D02*Y78661D01*
X66955Y82661D02*Y78661D01*
X68255Y82661D02*X68955Y81961D01*
Y79361D01*
X68255Y78661D02*X68955Y79361D01*
X66455Y78661D02*X68255D01*
X66455Y82661D02*X68255D01*
M02*
